<svg xmlns="http://www.w3.org/2000/svg" viewBox="0 0 1600 900">
  <defs><linearGradient id="wall" x1="0" y1="0" x2="1" y2="1"><stop stop-color="#f7f2eb"/><stop offset=".63" stop-color="#e8e0d5"/><stop offset="1" stop-color="#f6f1e9"/></linearGradient><radialGradient id="light" cx=".22" cy=".12" r=".82"><stop stop-color="#fffaf3"/><stop offset=".72" stop-color="#fffaf3" stop-opacity="0"/></radialGradient><filter id="blur"><feGaussianBlur stdDeviation="6"/></filter></defs>
  <rect width="1600" height="900" fill="url(#wall)"/><rect width="1600" height="900" fill="url(#light)"/>
  <path d="M1275 0h325v900h-325c-58-152-58-746 0-900Z" fill="#d5ccc0" opacity=".48"/>
  <ellipse cx="805" cy="728" rx="245" ry="48" fill="#9d9285" opacity=".22"/><ellipse cx="805" cy="700" rx="205" ry="41" fill="#ded8cf"/>
  <g opacity=".26" filter="url(#blur)"><rect x="710" y="225" width="280" height="210" rx="24" fill="#fff" stroke="#fff"/><rect x="1030" y="282" width="250" height="140" rx="24" fill="#fff" stroke="#fff"/><rect x="730" y="490" width="330" height="150" rx="24" fill="#fff" stroke="#fff"/></g>
  <g font-family="-apple-system,BlinkMacSystemFont,Segoe UI,sans-serif" fill="#2a2d27">
    <rect x="875" y="354" width="405" height="190" rx="32" fill="#fff" opacity=".58" stroke="#fff" stroke-width="2"/>
    <text x="930" y="412" font-size="30">Create API key</text>
    <circle cx="950" cy="480" r="33" fill="#e4ead8"/><text x="933" y="493" font-size="38">⌘</text>
    <rect x="1015" y="455" width="215" height="50" rx="18" fill="#fbf8f3" opacity=".78"/>
    <text x="1038" y="488" font-size="24" letter-spacing="6">•••• •••• ••••</text>
    <rect x="1210" y="462" width="36" height="36" rx="10" fill="#dce4cd"/><text x="1219" y="488" font-size="25" fill="#6f7d50">→</text>
  </g>
</svg>
